# xmcd
#
# Track frame offsets: 
#        150
#        22340
#        32590
#        44376
#        56490
#        65807
#        76698
#        86551
#        98069
#        110611
#        124804
#        140084
#        153956
#        173081
#        183108
#
# Disc length: 2618 seconds
#
# Revision: 0
# Processed by: cddbd v1.5PL3 Copyright (c) Steve Scherf et al.
# Submitted via: ExactAudioCopy v0.95a3
#
DISCID=c50a380f
DTITLE=朱逢博 - 那就是我
DYEAR=1993
DGENRE=Pop
TTITLE0=那就是我
TTITLE1=风儿不知哪里去了
TTITLE2=土地啊！我的宝贝
TTITLE3=青春舞曲
TTITLE4=珊瑚颂
TTITLE5=飘
TTITLE6=虹彩妹妹
TTITLE7=美丽的姑娘
TTITLE8=卡普里岛
TTITLE9=柠檬树
TTITLE10=将来怎样
TTITLE11=我的城下街
TTITLE12=白兰鸽
TTITLE13=划船曲
TTITLE14=森林大帝
EXTD=
EXTT0=
EXTT1=
EXTT2=
EXTT3=
EXTT4=
EXTT5=
EXTT6=
EXTT7=
EXTT8=
EXTT9=
EXTT10=
EXTT11=
EXTT12=
EXTT13=
EXTT14=
PLAYORDER=
